HIERARCHY
ROOT root
{
	OFFSET	0	13.1	24.9
	CHANNELS 6  Xposition Yposition Zposition Xrotation Yrotation Zrotation
	JOINT spine_1
	{
		OFFSET	0	9.99999	0
		CHANNELS 3  Xrotation Yrotation Zrotation
		JOINT spine_2
		{
			OFFSET	0	112	-10
			CHANNELS 3  Xrotation Yrotation Zrotation
			JOINT spine_3
			{
				OFFSET	0	206.5	19.3
				CHANNELS 3  Xrotation Yrotation Zrotation
				JOINT spine_4
				{
					OFFSET	0	110.4	14.6
					CHANNELS 3  Xrotation Yrotation Zrotation
					JOINT neck_1
					{
						OFFSET	0	71.8	-50.3
						CHANNELS 3  Xrotation Yrotation Zrotation
						JOINT neck_2
						{
							OFFSET	0	86.2	-25.8
							CHANNELS 3  Xrotation Yrotation Zrotation
							JOINT head_ee
							{
								OFFSET	0	179.8	-8.7
								CHANNELS 3  Xrotation Yrotation Zrotation
								End Site
								{
									OFFSET	1	0	0
								}
							}
						}
					}
					JOINT left_clavicle
					{
						OFFSET	-43.2	22.4	-70.8
						CHANNELS 3  Xrotation Yrotation Zrotation
						JOINT left_shoulder
						{
							OFFSET	-93.9	-5.79999	48.7
							CHANNELS 3  Xrotation Yrotation Zrotation
							JOINT left_elbow
							{
								OFFSET	-291.4	-30.8	15.2
								CHANNELS 3  Xrotation Yrotation Zrotation
								JOINT left_lowarm_twist
								{
									OFFSET	-110.7	-3.89999	13.6
									CHANNELS 3  Xrotation Yrotation Zrotation
									JOINT left_hand
									{
										OFFSET	-110.7	-3.89999	13.6
										CHANNELS 3  Xrotation Yrotation Zrotation
										JOINT left_ee
										{
											OFFSET	-80.8	-5.10001	12.1
											CHANNELS 3  Xrotation Yrotation Zrotation
											End Site
											{
												OFFSET	1	0	0
											}
										}
									}
								}
							}
						}
					}
					JOINT right_clavicle
					{
						OFFSET	43.2	22.4	-70.8
						CHANNELS 3  Xrotation Yrotation Zrotation
						JOINT right_shoulder
						{
							OFFSET	93.9	-5.79999	48.7
							CHANNELS 3  Xrotation Yrotation Zrotation
							JOINT right_elbow
							{
								OFFSET	291.4	-30.8	15.2
								CHANNELS 3  Xrotation Yrotation Zrotation
								JOINT right_lowarm_twist
								{
									OFFSET	110.7	-3.89999	13.6
									CHANNELS 3  Xrotation Yrotation Zrotation
									JOINT right_hand
									{
										OFFSET	110.7	-3.89999	13.6
										CHANNELS 3  Xrotation Yrotation Zrotation
										JOINT right_ee
										{
											OFFSET	80.8	-5.10001	12.1
											CHANNELS 3  Xrotation Yrotation Zrotation
											End Site
											{
												OFFSET	1	0	0
											}
										}
									}
								}
							}
						}
					}
				}
			}
		}
	}
	JOINT left_hip
	{
		OFFSET	-82.8	-127.5	0.300001
		CHANNELS 3  Xrotation Yrotation Zrotation
		JOINT left_knee
		{
			OFFSET	-28.2	-396.7	2.2
			CHANNELS 3  Xrotation Yrotation Zrotation
			JOINT left_ankle
			{
				OFFSET	-11.7	-411.3	35.4
				CHANNELS 3  Xrotation Yrotation Zrotation
				JOINT left_toes
				{
					OFFSET	0	-60	-88.6
					CHANNELS 3  Xrotation Yrotation Zrotation
					JOINT left_foot_ee
					{
						OFFSET	-22.5	-16.5	-42.2
						CHANNELS 3  Xrotation Yrotation Zrotation
						End Site
						{
							OFFSET	1	0	0
						}
					}
				}
			}
		}
	}
	JOINT right_hip
	{
		OFFSET	82.8	-127.5	0.300001
		CHANNELS 3  Xrotation Yrotation Zrotation
		JOINT right_knee
		{
			OFFSET	28.2	-396.7	2.2
			CHANNELS 3  Xrotation Yrotation Zrotation
			JOINT right_ankle
			{
				OFFSET	11.7	-411.3	35.4
				CHANNELS 3  Xrotation Yrotation Zrotation
				JOINT right_toes
				{
					OFFSET	0	-60	-88.6
					CHANNELS 3  Xrotation Yrotation Zrotation
					JOINT right_foot_ee
					{
						OFFSET	22.5	-16.5	-42.2
						CHANNELS 3  Xrotation Yrotation Zrotation
						End Site
						{
							OFFSET	1	0	0
						}
					}
				}
			}
		}
	}
}
MOTION
Frames: 15
Frame Time: 0.02
1282.32 694.246 -1519.91 -6.49906 54.6672 7.88236 2.21977 -0.0488088 1.01662 2.22033 -0.113397 1.01145 2.21824 -0.285886 0.976819 2.21693 -0.128036 1.00971 -0.563678 1.39682 -0.855023 -0.553229 3.19207 -0.75573 -0.0 0.0 -0.0 -1.62915 17.2338 -0.495281 -24.5803 -22.0798 70.664 0.822298 -22.163 0.161055 8.69582 0.224249 -1.08711 0.832947 16.0666 11.7539 -0.0 0.0 -0.0 10.7925 11.7296 -21.5563 -0.741935 22.7976 -62.1665 1.27251 32.2243 -0.367597 28.5709 -0.108308 3.61053 0.3861 10.0717 1.67296 0.0 0.0 0.0 37.0699 8.47584 -12.2027 -9.53789 0.273663 1.4365 -11.5284 20.3005 1.75789 -8.72133 0.0 0.0 -0.0 0.0 -0.0 -0.938609 23.6319 -2.82422 -25.2799 -0.19573 -3.84313 41.4877 -18.2841 5.12465 6.95296 -0.0 -0.0 0.0 0.0 0.0 
1266.89 696.24 -1522.7 -4.98372 55.0066 6.85476 2.10278 -0.454553 0.603206 2.10285 -0.492015 0.57306 2.09785 -0.584361 0.478538 2.09788 -0.501453 0.56482 -0.0784134 2.13779 -0.267527 -0.066058 4.02973 -0.0586952 -0.0 0.0 -0.0 -1.52363 16.379 -0.464176 -24.1005 -22.267 71.371 0.845074 -22.7152 0.169749 8.29046 0.217481 -1.03577 0.990672 16.1304 12.7716 -0.0 0.0 -0.0 10.7008 13.1295 -21.3201 -2.45378 22.2509 -61.5313 1.22085 31.1633 -0.340459 27.9962 -0.123927 3.53878 0.202979 8.71005 2.32863 0.0 0.0 0.0 34.8339 9.54282 -12.1012 -9.17359 0.267627 1.38092 -8.94791 19.0878 1.35436 -6.67416 0.0 0.0 -0.0 0.0 -0.0 -1.29775 23.9639 -3.0109 -27.4537 -0.133142 -4.17084 41.132 -15.9487 5.04845 7.20918 -0.0 -0.0 0.0 0.0 0.0 
1240.01 700.417 -1525.59 -4.58294 54.2316 7.03932 1.94799 -0.27434 0.399513 1.94803 -0.299206 0.381247 1.94601 -0.36192 0.322315 1.946 -0.306475 0.375428 -0.20538 2.37465 0.823177 -0.196684 3.56558 1.14114 -0.0 0.0 -0.0 -1.64072 15.575 -0.774558 -20.8075 -22.709 71.8919 0.866126 -23.2217 0.177964 8.84537 0.226654 -1.10606 0.875379 16.2671 12.0922 -0.0 0.0 -0.0 10.4847 12.2854 -20.8606 -4.5617 21.5093 -61.5734 1.18253 30.3602 -0.320855 27.2723 -0.142575 3.44818 0.134403 7.43856 2.24992 0.0 0.0 0.0 33.6184 10.0549 -12.3338 -10.0987 0.282264 1.52213 -8.78415 19.6601 1.33178 -6.11541 0.0 0.0 -0.0 0.0 -0.0 -0.959318 24.1887 -3.24926 -28.783 -0.0887528 -4.37002 40.6828 -14.9979 4.99341 7.61541 -0.0 -0.0 0.0 0.0 0.0 
1218.24 706.13 -1526.93 -4.64018 53.7674 7.73949 1.971 -0.00217035 0.133241 1.97101 -0.0106444 0.132833 1.97098 -0.0339129 0.128872 1.97096 -0.0131344 0.13261 -0.267031 2.63353 1.65974 -0.255453 3.34812 2.06739 -0.0 0.0 -0.0 -1.77812 15.7158 -0.970555 -18.4025 -22.8684 72.4187 0.862853 -23.1432 0.176676 8.49476 0.220938 -1.06164 0.576593 15.9242 10.0927 -0.0 0.0 -0.0 10.3447 11.7658 -20.5619 -6.21156 21.1038 -61.5518 0.959463 25.4208 -0.216412 25.2363 -0.188862 3.19224 0.111748 4.18742 1.02059 0.0 0.0 0.0 32.5179 10.565 -12.598 -9.70926 0.276381 1.46266 -11.8903 25.1775 1.85285 -5.99142 0.0 0.0 -0.0 0.0 -0.0 -1.33498 24.272 -3.25045 -27.7229 -0.124525 -4.21127 38.3847 -14.7403 4.78129 7.56236 -0.0 -0.0 0.0 0.0 0.0 
1190.5 711.484 -1529.54 -4.21707 54.2702 8.07457 2.18033 -0.115348 -0.28684 2.18037 -0.0968617 -0.293599 2.18087 -0.0446654 -0.305921 2.18075 -0.0924191 -0.295027 0.16399 3.11421 2.33289 0.182595 3.62821 2.83722 -0.0 0.0 -0.0 -2.39473 14.6184 -2.14536 -14.0418 -21.764 74.1623 0.993481 -26.2032 0.231225 8.74757 0.225087 -1.09366 0.30655 15.6648 8.30848 -0.0 0.0 -0.0 10.3371 10.5927 -20.5658 -9.18941 20.1339 -61.2207 0.798533 21.5821 -0.152202 24.9922 -0.1938 3.16145 0.117687 2.16143 0.123573 0.0 0.0 0.0 30.4065 11.219 -12.2654 -9.15223 0.267263 1.37767 -12.1132 24.4752 1.88137 -6.39948 0.0 0.0 -0.0 0.0 -0.0 -0.0374606 24.3211 -4.17498 -28.5788 -0.0958725 -4.33949 39.7162 -13.9839 4.89269 7.80443 -0.0 -0.0 0.0 0.0 0.0 
1174.52 718.431 -1530.79 -4.19177 56.163 8.68447 2.37626 -0.278304 -0.416476 2.37632 -0.251239 -0.433341 2.37823 -0.174194 -0.46964 2.37801 -0.246178 -0.436236 -2.74662 2.43231 4.05858 -2.70268 1.23245 4.57695 -0.0 0.0 -0.0 -2.1655 12.9216 -2.06308 -12.1372 -22.6689 73.3154 1.0063 -26.4953 0.236915 9.44493 0.235799 -1.1821 0.449545 15.3988 9.10233 -0.0 0.0 -0.0 10.0828 10.8324 -20.0025 -11.6832 20.7788 -61.1408 0.643864 17.6903 -0.100196 23.8218 -0.215651 3.01354 0.522199 -4.50777 -5.33069 0.0 0.0 0.0 26.6278 12.5687 -10.8517 -3.26382 0.120555 0.486318 -11.5369 23.7041 1.78409 -8.35527 0.0 0.0 -0.0 0.0 -0.0 3.44428 26.1775 -6.64723 -33.7794 0.11915 -5.10832 39.6975 -15.5451 4.9138 7.77126 -0.0 -0.0 0.0 0.0 0.0 
1154.59 729.907 -1533.56 -3.84309 55.8945 8.477 2.41835 -0.398436 -0.53906 2.41844 -0.363327 -0.563321 2.42204 -0.263122 -0.616524 2.42169 -0.357187 -0.567234 -2.49119 3.09877 3.59882 -2.45668 2.78129 4.19074 -0.0 0.0 -0.0 -2.25324 12.7821 -2.23302 -10.1529 -21.8934 73.6481 1.02088 -26.8257 0.243455 8.24594 0.216716 -1.03013 0.021951 15.5665 6.49931 -0.0 0.0 -0.0 10.075 10.1749 -19.9955 -12.3741 19.1213 -61.7879 0.526256 14.6115 -0.0674693 22.7455 -0.233076 2.87715 0.0171 -6.88938 -2.98342 0.0 0.0 0.0 25.9012 13.286 -10.7875 -3.6418 0.132719 0.543052 -17.1938 26.3242 2.70819 -7.57204 0.0 0.0 -0.0 0.0 -0.0 4.48314 25.2645 -6.52603 -33.5714 0.109213 -5.07796 40.0798 -14.7792 4.9365 7.4029 -0.0 -0.0 0.0 0.0 0.0 
1142.3 734.378 -1538.06 -4.86441 56.2226 9.84106 2.81695 -0.334273 -0.646139 2.81713 -0.292481 -0.666099 2.82051 -0.180859 -0.704642 2.81994 -0.289872 -0.667238 -3.46273 3.25472 3.57103 -3.42847 3.16798 4.18735 -0.0 0.0 -0.0 -2.32997 12.1052 -2.47856 -7.30315 -20.746 72.8688 1.0402 -27.2607 0.25224 8.32082 0.218001 -1.03961 -0.301023 15.606 4.51339 -0.0 0.0 -0.0 10.0336 9.66573 -19.911 -13.939 18.99 -62.436 0.382819 10.7381 -0.0359785 20.8489 -0.257531 2.63615 -0.00880407 -13.7876 -5.60632 0.0 0.0 0.0 23.7775 14.3406 -10.1275 2.08404 -0.091413 -0.306708 -22.6107 29.2563 3.63308 -8.82836 0.0 0.0 -0.0 0.0 -0.0 7.51969 25.8405 -8.24077 -38.0014 0.344541 -5.71646 41.2327 -14.3354 5.03161 7.64916 -0.0 -0.0 0.0 0.0 0.0 
1129.28 737.679 -1536.42 -4.85207 56.0321 9.70948 2.91819 -0.291164 -0.778838 2.91849 -0.241016 -0.795786 2.92178 -0.110543 -0.8241 2.92091 -0.239303 -0.796303 -5.44399 3.38037 3.53703 -5.41086 3.59193 4.19264 -0.0 0.0 -0.0 -2.40108 10.6137 -2.85894 -6.0819 -21.2282 72.3034 1.09202 -28.4106 0.27644 8.88785 0.227328 -1.11144 -0.0588081 15.0548 5.79578 -0.0 0.0 -0.0 9.97038 9.38599 -19.7757 -15.3853 18.9195 -62.0207 0.244224 6.89835 -0.0147199 19.0793 -0.273144 2.41066 -0.142598 -20.7695 -7.51373 0.0 0.0 0.0 21.7837 15.2242 -9.15167 4.77539 -0.225897 -0.69763 -24.5559 28.0537 3.91634 -9.94471 0.0 0.0 -0.0 0.0 -0.0 11.6294 28.0407 -9.89464 -41.6974 0.578269 -6.23424 40.4873 -14.5362 4.9692 7.74312 -0.0 -0.0 0.0 0.0 0.0 
1115.5 742.194 -1535.43 -4.60968 55.4572 9.25286 3.05227 -0.355822 -0.680681 3.05247 -0.311789 -0.701942 3.05625 -0.197172 -0.742331 3.05562 -0.311932 -0.701879 -7.19759 3.07849 2.34705 -7.18448 4.03509 2.97312 -0.0 0.0 -0.0 -2.49357 8.47731 -3.39283 -5.2554 -19.4624 72.7955 1.14476 -29.5557 0.301994 9.08032 0.230333 -1.13584 -0.39254 12.0406 2.47709 -0.0 0.0 -0.0 9.81908 8.045 -19.4551 -17.6568 18.5913 -61.5428 0.277595 7.82997 -0.0189976 17.6275 -0.280748 2.22538 -0.193801 -24.7952 -8.74045 0.0 0.0 0.0 20.0966 14.0187 -8.63805 5.14727 -0.245923 -0.751146 -22.7957 26.5839 3.60369 -10.7281 0.0 0.0 -0.0 0.0 -0.0 14.4957 29.2334 -10.8463 -44.273 0.760743 -6.58583 39.1334 -13.8387 4.83806 7.71236 -0.0 -0.0 0.0 0.0 0.0 
1109.0 742.413 -1533.72 -5.41584 54.5885 9.58282 3.18561 -0.242436 -0.804539 3.18595 -0.190751 -0.818334 3.18857 -0.0612161 -0.838038 3.18764 -0.192796 -0.817855 -7.96437 3.88903 1.92823 -7.95931 5.89275 2.75423 -0.0 0.0 -0.0 -2.47151 8.574 -3.3369 -3.37758 -18.8601 70.9293 1.18514 -30.4155 0.322179 11.4614 0.260709 -1.43844 -0.0437428 12.0554 4.69334 -0.0 0.0 -0.0 9.86824 9.2248 -19.5546 -18.8091 18.3974 -61.7551 0.224718 6.35209 -0.0124694 16.7838 -0.283009 2.11765 -0.086313 -28.5272 -10.7036 0.0 0.0 0.0 19.8363 15.5656 -7.7036 7.0431 -0.353401 -1.02192 -24.3934 29.0784 3.91573 -12.9472 0.0 0.0 -0.0 0.0 -0.0 17.4626 33.199 -12.3002 -45.6961 0.868323 -6.77654 40.6639 -13.8835 4.97555 7.37322 -0.0 -0.0 0.0 0.0 0.0 
1095.49 745.387 -1529.35 -5.93713 53.5777 9.77365 3.29025 -0.321691 -0.524956 3.29036 -0.287635 -0.544362 3.29306 -0.200579 -0.582092 3.29271 -0.289991 -0.54311 -8.85495 3.62791 1.27555 -8.85806 5.91164 2.09172 -0.0 0.0 -0.0 -1.93554 6.725 -2.68669 -1.5605 -17.6909 69.9888 1.13565 -29.3598 0.297516 12.4056 0.269268 -1.55875 -0.429268 10.6431 1.66013 -0.0 0.0 -0.0 9.49338 9.36032 -18.739 -19.9661 18.8247 -62.063 0.216487 6.12122 -0.0115752 15.4218 -0.283312 1.9437 0.234511 -29.0057 -12.6377 0.0 0.0 0.0 19.5138 15.1851 -7.27617 6.45099 -0.318869 -0.937729 -24.3762 28.9285 3.90917 -13.7599 0.0 0.0 -0.0 0.0 -0.0 20.9745 37.1526 -13.2809 -44.0354 0.743247 -6.55374 39.0832 -14.088 4.83675 7.38508 -0.0 -0.0 0.0 0.0 0.0 
1087.19 745.249 -1529.89 -7.12901 51.2806 10.3327 3.33704 -0.122601 -0.195833 3.33706 -0.109891 -0.203237 3.33744 -0.0775236 -0.21765 3.33739 -0.110924 -0.202675 -9.48932 2.28795 0.402702 -9.49317 4.02208 0.94454 -0.0 0.0 -0.0 -1.01507 5.41298 -1.20998 -1.48971 -15.1693 65.9279 1.09507 -28.4775 0.277892 13.2463 0.275219 -1.66596 0.0303337 -0.114606 0.154309 -0.0 0.0 -0.0 9.00824 8.66573 -17.7023 -21.4251 18.8144 -63.2595 0.342787 9.63747 -0.0288976 14.8033 -0.282084 1.8647 0.660224 -27.8614 -14.6535 0.0 0.0 0.0 22.7845 15.3696 -8.25677 -1.32164 0.0521583 0.196114 -12.7495 29.9125 2.04546 -12.3008 0.0 0.0 -0.0 0.0 -0.0 21.7238 45.5488 -14.6978 -37.448 0.312444 -5.63769 41.7077 -15.6236 5.09306 9.42848 -0.0 -0.0 0.0 0.0 0.0 
1074.89 743.666 -1533.18 -6.00294 48.8486 8.94559 3.39819 -0.156802 -0.0532009 3.39817 -0.153099 -0.0630708 3.39835 -0.141746 -0.0855877 3.39837 -0.153484 -0.0621274 -8.44519 2.272 -0.559605 -8.4469 4.6404 -0.0428009 -0.0 0.0 -0.0 -1.02106 5.54015 -1.20315 -1.28415 -15.0817 63.8301 1.12021 -29.0259 0.289984 15.6853 0.283576 -1.97735 -0.781682 6.03549 -2.59044 -0.0 0.0 -0.0 8.88367 8.26165 -17.441 -21.599 19.1353 -64.0338 0.385633 10.8152 -0.0365046 13.776 -0.278161 1.73356 0.447541 -24.0274 -12.178 0.0 0.0 0.0 22.8179 15.5858 -8.7951 -5.44411 0.185558 0.814591 -8.09159 30.1415 1.2929 -13.1658 0.0 0.0 -0.0 0.0 -0.0 21.1665 42.7827 -12.7578 -38.3451 0.364853 -5.76521 41.0293 -10.3155 4.96824 8.40036 -0.0 -0.0 0.0 0.0 0.0 
1064.38 746.281 -1531.42 -6.91887 47.9903 9.16126 3.34372 -0.0215948 0.0546264 3.34372 -0.0250271 0.0531415 3.3437 -0.032853 0.0486935 3.34369 -0.0247505 0.0532709 -7.70728 2.25221 -1.45668 -7.70144 5.23379 -0.967852 -0.0 0.0 -0.0 -0.789735 4.94707 -0.86094 0.508224 -14.0893 62.6326 1.12133 -29.0501 0.290527 14.4609 0.281038 -1.82099 -0.868553 2.49913 -4.71228 -0.0 0.0 -0.0 8.52781 7.85733 -16.6879 -22.6394 18.9556 -63.7873 0.452966 12.6471 -0.0501967 12.5921 -0.270724 1.58252 0.368207 -24.5625 -11.898 0.0 0.0 0.0 21.6289 14.2877 -7.47797 -4.04359 0.145239 0.603444 -9.63329 30.0294 1.54124 -13.713 0.0 0.0 -0.0 0.0 -0.0 22.7479 47.3108 -12.5051 -35.7962 0.221206 -5.40084 41.1989 -10.982 4.98862 7.99505 -0.0 -0.0 0.0 0.0 0.0 
